---
title: 孙悦.1999-快乐指南【广州音像】【WAV+CUE】
date: 2022-12-10 11:42:36
categories: WAV车载音乐、镜像
tags: 华语中文
---
# 孙悦.1999-快乐指南【广州音像】【WAV+CUE】

FILE "孙悦 - 快乐指南.wav" WAVE
TRACK 01 AUDIO
TITLE "快乐指南"
PERFORMER "孙悦"
REM COMPOSER ""
INDEX 01 00:00:00
TRACK 02 AUDIO
TITLE "好人好梦"
PERFORMER "孙悦 & 邰正宵"
REM COMPOSER ""
INDEX 00 04:03:41
INDEX 01 04:05:41
TRACK 03 AUDIO
TITLE "伙伴"
PERFORMER "孙悦"
REM COMPOSER ""
INDEX 00 08:22:08
INDEX 01 08:24:08
TRACK 04 AUDIO
TITLE "心情不错"
PERFORMER "孙悦"
REM COMPOSER ""
INDEX 00 12:24:05
INDEX 01 12:26:05
TRACK 05 AUDIO
TITLE "爱情不会老"
PERFORMER "孙悦"
REM COMPOSER ""
INDEX 00 16:57:70
INDEX 01 16:59:70
TRACK 06 AUDIO
TITLE "兄弟姐妹"
PERFORMER "孙悦"
REM COMPOSER ""
INDEX 00 20:58:01
INDEX 01 21:00:01
TRACK 07 AUDIO
TITLE "我的祝福记得吗"
PERFORMER "孙悦"
REM COMPOSER ""
INDEX 00 25:48:05
INDEX 01 25:50:05
TRACK 08 AUDIO
TITLE "嘿 秋丽"
PERFORMER "孙悦 & 王童语"
REM COMPOSER ""
INDEX 01 29:30:29
TRACK 09 AUDIO
TITLE "感谢你"
PERFORMER "孙悦"
REM COMPOSER ""
INDEX 00 34:39:40
INDEX 01 34:41:40
TRACK 10 AUDIO
TITLE "答案"
PERFORMER "孙悦"
REM COMPOSER ""
INDEX 00 39:12:56
INDEX 01 39:14:56
TRACK 11 AUDIO
TITLE "人在红尘"
PERFORMER "孙悦"
REM COMPOSER ""
INDEX 00 43:51:54
INDEX 01 43:53:54
TRACK 12 AUDIO
TITLE "有缘相聚"
PERFORMER "孙悦 & 张萌萌"
REM COMPOSER ""
INDEX 00 48:28:31
INDEX 01 48:30:31
孙悦.1999 - 快乐指南【广州音像】【WAV+CUE】.rar: https://url27.ctfile.com/f/9388027-743533695-94bf41?p=559675
(访问密码: 559675)
孙悦.1998 - 好人好梦（情歌对唱合辑）【嘉鹏】【WAV+CUE】.rar: https://url27.ctfile.com/f/9388027-743533766-9fcda7?p=559675
(访问密码: 559675)
孙悦.1998 - 幸福快车【上海音像】【WAV+CUE】.rar: https://url27.ctfile.com/f/9388027-743533676-f52e64?p=559675
(访问密码: 559675)
孙悦.1996 - 伙伴【正大国际】【ＷAV+CUE】.rar: https://url27.ctfile.com/f/9388027-728110658-e7d436?p=559675
(访问密码: 559675)
孙悦.2002 - 百合花【天中文化】【WAV+CUE】.rar: https://url27.ctfile.com/f/9388027-728110636-48efd1?p=559675
(访问密码: 559675)
孙悦.2002 - 独一无二（TP版）【中唱】【WAV+CUE】.rar: https://url27.ctfile.com/f/9388027-728111191-24fb10?p=559675
(访问密码: 559675)
孙悦.2003 - 她和她们【天中文化】【WAV+CUE】.rar: https://url27.ctfile.com/f/9388027-495195494-3203d8?p=559675
(访问密码: 559675)
孙悦.2004 - 悦得精选【上海音像】【WAV+CUE】.rar: https://url27.ctfile.com/f/9388027-728111186-b477f2?p=559675
(访问密码: 559675)
孙悦.2006 - 幸福沙漏【天中文化】【WAV+CUE】.rar: https://url27.ctfile.com/f/9388027-728110622-c30edf?p=559675
(访问密码: 559675)
原文：[链接](https://blog.sina.com.cn/s/blog_1647c7e76010310jb.html)